<?xml version="1.0" encoding="utf-8"?>
<!-- Generator: Adobe Illustrator 27.5.0, SVG Export Plug-In . SVG Version: 6.00 Build 0)  -->
<svg version="1.1" id="katman_1" xmlns="http://www.w3.org/2000/svg" xmlns:xlink="http://www.w3.org/1999/xlink" x="0px" y="0px"
	 viewBox="0 0 841.89 595.28" style="enable-background:new 0 0 841.89 595.28;" xml:space="preserve">
<style type="text/css">
	.st0{fill:#1D1D1B;}
	.st1{fill-rule:evenodd;clip-rule:evenodd;fill:#1D1D1B;}
	.st2{opacity:0.25;fill-rule:evenodd;clip-rule:evenodd;fill:#1D1D1B;enable-background:new    ;}
</style>
<path class="st0" d="M388.28,249.79l-20.33-48.52c-13.77-32.76-7.26-68.9,13.82-94.65c-13.62,2.54-27.14,6.46-40.42,11.98
	c-61.74,25.7-103.6,78.79-117.32,139.25c11.24-13.17,26.94-24.16,46.98-32.51c48.47-20.18,89.63-11.83,117.32,24.46H388.28z"/>
<path class="st0" d="M355.32,302.14c-12.68-30.28-36.74-39.52-66.27-27.24c-29.88,12.43-40.47,36.69-27.79,67.01
	c12.63,30.13,37.19,39.57,66.71,27.29l47.23-19.69L355.32,302.14L355.32,302.14z"/>
<path class="st0" d="M564.91,360.55l-24.61,10.24c-42.55,17.7-90.78,1.69-114.74-35.84c0.94,7.11,1.19,14.27,0.6,21.48l-9.59,119.21
	c0.45,8.65-1.89,16.95-6.31,23.96c28.09,1.14,56.87-3.68,84.51-15.16c75.02-31.22,120.65-102.86,122.24-178.92
	c-8.45,24.01-26.7,44.49-52.1,55.08l0,0V360.55z"/>
<path class="st0" d="M253.76,413.45c26.05,17.8,59.31,19.29,96.44,3.83l0,0l18.69-7.76l-7.46,82.03
	c-43.05-12.73-81.48-39.77-107.73-78.1H253.76z"/>
<path class="st1" d="M445.9,125.11l9.74-4.08l0,0c24.81-10.29,53.34,1.34,63.68,26.05l43.8,104.4
	c10.34,24.71-1.34,53.09-26.15,63.43l-9.74,4.03c-24.81,10.29-53.29-1.34-63.68-26.05l-43.8-104.4
	c-10.39-24.71,1.34-53.09,26.15-63.43L445.9,125.11z M491.98,247.26l-2.29-5.47l-1.34,0.55c-4.13,1.54-7.11,0-9.15-4.87l-8-19.09
	l4.77-1.99l-2.29-5.37l-4.77,1.99l-3.43-8.1l-0.25,0.15c-2.39,1.19-5.22,2.54-4.87,3.78l2.78,6.61l-3.18,1.29l2.29,5.37l3.18-1.29
	l8.05,19.24c3.73,8.8,8.85,11.24,17.45,7.66l1.09-0.45H491.98z M524.34,233.78l5.77-2.39l0,0l-9.94-23.71
	c-4.18-9.89-10.89-12.63-21.08-8.45c-3.38,1.39-6.76,3.38-10.14,6.06l-7.76-18.54l-0.3,0.15c-2.39,1.14-5.17,2.54-4.82,3.78
	l22.57,53.74l5.77-2.39l-12.98-30.92c2.73-2.54,6.11-4.62,9-5.82c6.51-2.68,11.38-1.44,14.37,5.57l9.59,22.92L524.34,233.78z"/>
<path class="st2" d="M194.95,200.03c-13.12,29.73-20.43,62.59-20.43,97.19c0,133.33,108.52,241.41,242.4,241.41
	c94.31,0,175.98-53.59,216.1-131.89l9.94,5.12C601,493.73,515.55,549.81,416.91,549.81c-139.99,0-253.58-113.05-253.58-252.59
	c0-36.19,7.66-70.59,21.43-101.71l10.24,4.52L194.95,200.03z"/>
</svg>
